<svg id="_1.iOS_3.Element_Alert" data-name="1.iOS/3.Element/Alert" xmlns="http://www.w3.org/2000/svg" width="40" height="40" viewBox="0 0 40 40">
  <rect id="_1.iOS_3.Element_Alert_background" data-name="1.iOS/3.Element/Alert background" width="40" height="40" fill="none"/>
  <path id="Combined_Shape" data-name="Combined Shape" d="M20.605,40A21.048,21.048,0,0,1,5.934,34.218,18.768,18.768,0,0,1,0,20.605,20.269,20.269,0,0,1,20.605,0,18.768,18.768,0,0,1,34.218,5.934,21.048,21.048,0,0,1,40,20.605a18.559,18.559,0,0,1-1.562,7.435,20.219,20.219,0,0,1-10.4,10.4A18.559,18.559,0,0,1,20.605,40ZM20,25.833a2,2,0,1,0,2,2A2,2,0,0,0,20,25.833ZM18.874,10a.833.833,0,0,0-.832.873L18.666,24h2.667l.625-13.126A.834.834,0,0,0,21.126,10Z" fill="#fd9890"/>
</svg>
