<svg xmlns="http://www.w3.org/2000/svg" width="25" height="22.504" viewBox="0 0 25 22.504">
  <path id="收藏夹" d="M110.455,131.548H101.9a2.352,2.352,0,0,1-2.058-1.218l-.626-1.132a2.352,2.352,0,0,0-2.058-1.218h-7a2.361,2.361,0,0,0-2.355,2.368v17.769a2.361,2.361,0,0,0,2.355,2.368h20.291a2.361,2.361,0,0,0,2.355-2.368v-14.2A2.362,2.362,0,0,0,110.455,131.548Zm-5.359,8.571-1.885,1.848a.358.358,0,0,0-.1.315l.445,2.61a.516.516,0,0,1-.205.507.509.509,0,0,1-.543.039l-2.331-1.232a.353.353,0,0,0-.329,0l-2.331,1.232a.516.516,0,0,1-.748-.546l.445-2.61a.357.357,0,0,0-.1-.315l-1.885-1.848a.519.519,0,0,1,.286-.884l2.606-.381a.354.354,0,0,0,.267-.195l1.166-2.374a.514.514,0,0,1,.924,0l1.165,2.374a.354.354,0,0,0,.267.195l2.606.381a.519.519,0,0,1,.286.884Z" transform="translate(-87.81 -127.98)" fill="#52a9ff"/>
</svg>
