<svg xmlns="http://www.w3.org/2000/svg" width="25" height="25.311" viewBox="0 0 25 25.311">
  <g id="认证" transform="translate(-6.361 -0.129)">
    <path id="路径_797" data-name="路径 797" d="M20.842,25.283A50.437,50.437,0,0,1,9.7,24.9c-.773-.1-1.543-.213-2.31-.346-.569-.094-1.013-.363-1.013-.984A29.917,29.917,0,0,1,6.439,20.2c.1-.944.936-1.4,1.778-1.711,1.029-.386,2.109-.655,3.13-1.048s1.941-.957,2.08-2.166a2.1,2.1,0,0,0-.731-2.089,3.687,3.687,0,0,1-1.318-1.973,1.273,1.273,0,0,0-.4-.574A2.106,2.106,0,0,1,10.357,8.1a12.487,12.487,0,0,0,.408-2.391,6.6,6.6,0,0,1,1.794-4.04c2.566-2.532,8.407-2.042,9.72,2.262.256.848.328,1.743.509,2.616a12.6,12.6,0,0,0,.455,1.773,2.225,2.225,0,0,1-.643,2.237,3.271,3.271,0,0,0-.571.8,15.269,15.269,0,0,0-.773,1.382c-.912,1.978-2.579,3.661-2.566,5.993a6.485,6.485,0,0,0,3.546,6.047c.1.057.207.114.455.25-.726.1-1.284.215-1.848.262Z" transform="translate(0 0)" fill="#52a9ff"/>
    <path id="路径_798" data-name="路径 798" d="M560.377,523.6a5.874,5.874,0,1,0,5.874,5.872A5.877,5.877,0,0,0,560.377,523.6Zm4.126,4.892-4.319,3.816a.907.907,0,0,1-1.251-.051l-2.02-2.1a.9.9,0,1,1,1.3-1.254l1.418,1.477,3.669-3.24a.9.9,0,0,1,1.2,1.355Z" transform="translate(-534.891 -510.856)" fill="#52a9ff"/>
  </g>
</svg>
