<svg xmlns="http://www.w3.org/2000/svg" width="33.67" height="23.891" viewBox="0 0 33.67 23.891">
  <path id="Act_left" data-name="Act left" d="M332.927,3833.213a1.592,1.592,0,0,1-1.592-1.592,9.551,9.551,0,0,0-9.551-9.551H305.547l7.721,6.765a1.6,1.6,0,1,1-2.1,2.4l-9.551-8.357a2.276,2.276,0,0,1,1.5-3.98h18.673a12.735,12.735,0,0,1,12.735,12.735A1.592,1.592,0,0,1,332.927,3833.213Zm-25.1-16.317,5.46-4.776a1.6,1.6,0,0,0-2.1-2.4l-5.46,4.776a1.6,1.6,0,0,0,2.1,2.4Z" transform="translate(-300.849 -3809.322)" fill="#65d0dd"/>
</svg>
