<svg xmlns="http://www.w3.org/2000/svg" width="17.973" height="20.271" viewBox="0 0 17.973 20.271">
  <g id="Serch" transform="translate(-205.306 -731.729)" opacity="0.76">
    <path id="路径_360" data-name="路径 360" d="M221.909,752.63a1.9,1.9,0,0,1-1.51-.75l-3.419-4.531A1.9,1.9,0,0,1,220,745.041l3.457,4.531a1.9,1.9,0,0,1-1.51,3.049Z" transform="translate(-0.566 -0.63)" fill="#f4a9a3"/>
    <path id="路径_361" data-name="路径 361" d="M219.96,745.051a1.9,1.9,0,0,0-1.995-.684,4.751,4.751,0,0,1-1.14,1.273c-.066.047-.142.086-.218.133a1.9,1.9,0,0,0,.332,1.577l1.4,1.833a8.208,8.208,0,0,0,2.755-2.66Z" transform="translate(-0.564 -0.631)" fill="#f4a9a3"/>
    <path id="路径_362" data-name="路径 362" d="M213.859,748.827a8.549,8.549,0,1,1,5.177-1.748,8.549,8.549,0,0,1-5.177,1.748Zm0-13.3a2.666,2.666,0,1,1-.019.009Z" transform="translate(0 0)" fill="#f4a9a3"/>
  </g>
</svg>
