<svg xmlns="http://www.w3.org/2000/svg" width="58" height="58" viewBox="0 0 58 58">
  <g id="组_1260" data-name="组 1260" transform="translate(-161 -321)">
    <rect id="矩形_622" data-name="矩形 622" width="58" height="58" transform="translate(161 321)" fill="none"/>
    <path id="vs" d="M7.338,0q.674,8.972,1.345,17.951V17.9L16,0h6.655q-4.992,11.983-9.983,23.972H3.328L0,0ZM31.749.2a24.211,24.211,0,0,1,5.743.5L40,1.322v.023L37.355,7.322l-1.385-.708a16.427,16.427,0,0,0-3.488-1.163A2.171,2.171,0,0,0,29.657,6.7a1.289,1.289,0,0,0,.592,1.14A14.246,14.246,0,0,0,32.825,9.42c2.954,1.5,5.385,2.231,6.063,6.091a7.258,7.258,0,0,1-1.345,4.971,8.4,8.4,0,0,1-5.128,3.742c-.663.168-1.318.131-2.075.251a9.869,9.869,0,0,1-2.894-.068c-.94-.165-1.892-.252-2.758-.462-1.177-.278-2.282-.529-3.349-.866a4.154,4.154,0,0,1-1.323-.462L22.683,16H22.7a3.134,3.134,0,0,0,1.323,1.163,17.658,17.658,0,0,0,4.6,2.166c1.308.4,1.988.3,2.508-.729a1.52,1.52,0,0,0,.2-1,3.131,3.131,0,0,0-1.868-1.826c-1.666-.975-3.86-1.589-5.038-3.055A7.588,7.588,0,0,1,23,10.208c-1.24-3.954,1.846-7.586,4.126-8.923A9.951,9.951,0,0,1,30.135.349Z" transform="translate(170 338)" fill="#fd9890"/>
  </g>
</svg>
