<svg xmlns="http://www.w3.org/2000/svg" width="22.488" height="25" viewBox="0 0 22.488 25">
  <path id="人工智能" d="M94.979,33.806a9.6,9.6,0,0,0-18.99,0,2.189,2.189,0,0,0-1.749,2.117,2.215,2.215,0,0,0,2.249,2.17H77.7V34.832a7.356,7.356,0,0,1,2.288-5.326,7.977,7.977,0,0,1,11.007.013,7.343,7.343,0,0,1,2.275,5.326v3.209s1.039.053,1.21.053a2.215,2.215,0,0,0,2.249-2.17A2.17,2.17,0,0,0,94.979,33.806Zm-3.6,6.839a8.614,8.614,0,0,1-11.862-.053,9.505,9.505,0,0,0-4.156,7.825v.71A1.684,1.684,0,0,0,77.041,50.6H93.9a1.684,1.684,0,0,0,1.683-1.473,7.524,7.524,0,0,0-.5-3.472A10.235,10.235,0,0,0,91.376,40.645Zm-5.892,1.223A6.658,6.658,0,1,0,78.593,35.2,6.766,6.766,0,0,0,85.484,41.868Z" transform="translate(-74.24 -25.6)" fill="#52a9ff"/>
</svg>
