<svg xmlns="http://www.w3.org/2000/svg" xmlns:xlink="http://www.w3.org/1999/xlink" width="64.841" height="78.252" viewBox="0 0 64.841 78.252">
  <defs>
    <filter id="椭圆_140" x="0" y="39.392" width="55.507" height="38.86" filterUnits="userSpaceOnUse">
      <feOffset dy="3" input="SourceAlpha"/>
      <feGaussianBlur stdDeviation="3" result="blur"/>
      <feFlood flood-color="#888" flood-opacity="0.6"/>
      <feComposite operator="in" in2="blur"/>
      <feComposite in="SourceGraphic"/>
    </filter>
    <clipPath id="clip-path">
      <path id="联合_4" data-name="联合 4" d="M0,27.008V0H18.982V27.008Z" fill="none"/>
    </clipPath>
  </defs>
  <g id="最后一面旗子" transform="translate(5939 10742)">
    <g id="组件_60_11" data-name="组件 60 – 11" transform="translate(-5930 -10696.608)">
      <g transform="matrix(1, 0, 0, 1, -9, -45.39)" filter="url(#椭圆_140)">
        <g id="椭圆_140-2" data-name="椭圆 140" transform="translate(9 45.39)" fill="#77ea53" stroke="#fff" stroke-width="3">
          <ellipse cx="18.754" cy="10.43" rx="18.754" ry="10.43" stroke="none"/>
          <ellipse cx="18.754" cy="10.43" rx="17.254" ry="8.93" fill="none"/>
        </g>
      </g>
    </g>
    <g id="flag" transform="translate(-5914 -10742)">
      <rect id="line" width="3.335" height="54.01" transform="translate(0 0)" fill="#324d5b"/>
      <g id="red_back" data-name="red back" transform="translate(20.858 4.265)">
        <g id="red_back-2" data-name="red back" transform="translate(0 0)">
          <rect id="red_back-3" data-name="red back" width="18.982" height="27.008" transform="translate(0)" fill="#e2574c"/>
          <path id="Color_Overlay" data-name="Color Overlay" d="M0,0H18.982V27.008H0Z" transform="translate(0)" opacity="0.1"/>
        </g>
        <g id="Clip" transform="translate(0 0)" clip-path="url(#clip-path)">
          <path id="yellow_back" data-name="yellow back" d="M0,27.008V22.743H18.982v4.265ZM4.38,4.264V0h14.6V4.264Z" fill="#f1cd6e"/>
        </g>
      </g>
      <path id="corner" d="M462.27,589.429h4.38l-4.38,4.265Z" transform="translate(-441.411 -562.421)" fill="rgba(0,0,0,0.25)"/>
      <path id="red_front" data-name="red front" d="M0,0H21.9V27.008H0Z" transform="translate(3.336 0)" fill="#e2574c"/>
      <path id="yellow_front" data-name="yellow front" d="M0,27.008V22.744H21.9v4.264ZM0,4.265V0H21.9V4.265Z" transform="translate(3.336)" fill="#f1cd6e"/>
    </g>
  </g>
</svg>
