<svg xmlns="http://www.w3.org/2000/svg" width="200" height="199.999" viewBox="0 0 200 199.999">
  <path id="哭脸" d="M100,200A100,100,0,1,1,200,100,100.036,100.036,0,0,1,100,200ZM54.6,117.8A10.8,10.8,0,1,0,65.4,107,10.755,10.755,0,0,0,54.6,117.8Zm80-63.4a6.4,6.4,0,0,0-9.2,0c-12.8,12.8-38.8,13.2-53.2,0a6.507,6.507,0,0,0-9,9.4c19.4,18.2,53.6,17.8,71.4-.2A6.4,6.4,0,0,0,134.6,54.4ZM131,107a10.8,10.8,0,1,0,10.8,10.8A10.755,10.755,0,0,0,131,107Z" transform="translate(200 199.999) rotate(180)" fill="#888"/>
</svg>
