<svg xmlns="http://www.w3.org/2000/svg" width="200" height="199.999" viewBox="0 0 200 199.999">
  <path id="刷新" d="M105.12,7.163a100,100,0,1,0,100,100A100.114,100.114,0,0,0,105.12,7.163Zm-.246,154.345a51.894,51.894,0,0,1-48.6-33.959l.074-.03a6.673,6.673,0,0,1-.765-3A6.821,6.821,0,0,1,62.4,117.7a6.747,6.747,0,0,1,6.4,4.742l.1-.039a38.192,38.192,0,1,0,35.976-50.961,37.819,37.819,0,0,0-13.128,2.414l4.809,9.221a3.4,3.4,0,0,1,.909,2.318,3.7,3.7,0,0,1-3.477,3.411h-.07c-.05,0-.1,0-.147,0L59.691,87.341A3.411,3.411,0,0,1,56.96,82.1L75.267,53.321a3.411,3.411,0,0,1,5.9.257l4.2,8.062a51.84,51.84,0,1,1,19.5,99.868Z" transform="translate(-5.12 -7.163)" fill="#888"/>
</svg>
