<svg xmlns="http://www.w3.org/2000/svg" width="200" height="200" viewBox="0 0 200 200">
  <path id="握手" d="M228.237,128.236a100,100,0,1,0,100,100A100,100,0,0,0,228.237,128.236ZM270.344,243.6a10.216,10.216,0,0,1,0,14.341,9.807,9.807,0,0,1-7.069,2.964,7.148,7.148,0,0,1-1.267-.127,12.144,12.144,0,0,1,.127,1.318,10.036,10.036,0,0,1-2.939,7.171,9.921,9.921,0,0,1-8.362,2.837,11.13,11.13,0,0,1,.127,1.292,10.309,10.309,0,0,1-2.914,7.2,9.921,9.921,0,0,1-8.361,2.838,10.653,10.653,0,0,1,.127,1.292,10.106,10.106,0,0,1-2.939,7.145,9.911,9.911,0,0,1-14.138,0l-6.664-6.765-2.635,2.66-4.662,4.738a7.815,7.815,0,0,1-11.148,0,8.193,8.193,0,0,1-.634-10.769,7.8,7.8,0,0,1-10.54-.507,8.044,8.044,0,0,1,0-11.3,7.845,7.845,0,0,1-11.174,0,8.044,8.044,0,0,1,0-11.3,7.815,7.815,0,0,1-11.149,0,8.075,8.075,0,0,1,0-11.326l4.662-4.738,2.686-2.711-23.133-23.412a2.2,2.2,0,0,1,0-3.041,2.1,2.1,0,0,1,2.99,0l23.209,23.539a7.823,7.823,0,0,1,10.059.887,8.07,8.07,0,0,1,.912,10.211l.2.2a7.831,7.831,0,0,1,10.084.912,8.091,8.091,0,0,1,.887,10.186l.2.2a7.762,7.762,0,0,1,10.034.912,8.052,8.052,0,0,1,.532,10.667,7.989,7.989,0,0,1,11.5,10.87l6.765,6.866a5.691,5.691,0,0,0,8.158,0,5.892,5.892,0,0,0,1.7-4.13,5.805,5.805,0,0,0-1.7-4.13L217.87,264.35a2.13,2.13,0,0,1-.608-1.495,2.249,2.249,0,0,1,.608-1.545,2.1,2.1,0,0,1,2.99,0l.177.177c1.773,1.773,15.836,16.039,15.836,16.039a5.72,5.72,0,0,0,8.159,0,5.8,5.8,0,0,0,1.7-4.13,5.868,5.868,0,0,0-1.672-4.13L229.044,253.05a2.157,2.157,0,0,1,0-3.041,2.1,2.1,0,0,1,2.99,0,.759.759,0,0,0,.2.177c1.773,1.773,15.836,16.039,15.836,16.039a5.721,5.721,0,0,0,8.159,0,5.873,5.873,0,0,0,0-8.26l-16.013-16.216a2.2,2.2,0,0,1,0-3.04,2.1,2.1,0,0,1,2.99,0l16.013,16.216a5.653,5.653,0,0,0,4.079,1.722,5.74,5.74,0,0,0,4.079-1.722,5.873,5.873,0,0,0,0-8.26l-4.485-4.535h-.025L226.308,205.11a9.213,9.213,0,0,0-5.169-1.926c-4.155-.253-7.906,2.787-9.451,6.461L206.7,221.4a9.589,9.589,0,0,1-18.192-4.916,10.268,10.268,0,0,1,.836-3.421L201.5,184.688a16.531,16.531,0,0,1,21.841-8.741l31.621,9.426,32.305,32.28-21.385,21.461Zm29.468-31.9a4.3,4.3,0,0,1-6.106,0l-31.874-32.255a4.443,4.443,0,0,1,.025-6.208l7.652-7.753a4.3,4.3,0,0,1,6.106,0l31.849,32.28a4.389,4.389,0,0,1,0,6.182Z" transform="translate(-128.237 -128.236)" fill="#888"/>
</svg>
