<svg xmlns="http://www.w3.org/2000/svg" width="200" height="199.995" viewBox="0 0 200 199.995">
  <path id="悔棋" d="M29.328,170.712a100,100,0,1,0,0-141.411,100,100,0,0,0,0,141.411ZM46.689,89.438,85.674,59.818a2.083,2.083,0,0,1,3.35,1.638V74.711a2.073,2.073,0,0,0,1.856,2.051c27.791,3.081,52.33,19.829,58.617,45.471,3.709,15.137,3.149,15.61,2.224,16.384a2.09,2.09,0,0,1-1.973.393l-.085-.027a2.823,2.823,0,0,1-1.6-1.648c-1.55-3.3-8.025-14.485-13.4-20.132-10.5-11.03-26-12.891-43.685-11.777a2.075,2.075,0,0,0-1.953,2.063V120.7a2.083,2.083,0,0,1-3.35,1.638L46.681,92.714a2.051,2.051,0,0,1,0-3.276Z" transform="translate(-0.037 -0.005)" fill="#888"/>
</svg>
