<svg id="对战" xmlns="http://www.w3.org/2000/svg" width="196.557" height="196.559" viewBox="0 0 196.557 196.559">
  <path id="圆" d="M98.279,0A98.28,98.28,0,1,1,0,98.28,98.279,98.279,0,0,1,98.279,0Z" fill="#b0b0b0" opacity="0.93"/>
  <g id="小icon" transform="translate(39.517 51.552)">
    <path id="联合_3" data-name="联合 3" d="M0,41.244V0H56.785V41.244c0,14.856-12.711,26.9-28.392,26.9S0,56.1,0,41.244Z" transform="translate(27.082 2.564)" fill="#fff"/>
    <path id="对战-2" data-name="对战" d="M87.544,55.046H84.918A32.821,32.821,0,0,1,56.27,75.02V65.643c7.455,0,18.38-8.815,21.334-15.52l2.11-3.235V9.378H56.27V0H81.261a9.014,9.014,0,0,1,7.83,9.378v4.689h18.755c3.47,0,4.689,5.58,4.689,8.956v7.549A24.006,24.006,0,0,1,87.544,55.046Zm15.613-31.6H89.091V42.2l-1.547.61c11.863,0,15.613-7.924,15.613-9.987ZM87.684,55.187a.173.173,0,0,1-.141-.047v-.094C87.778,55.14,87.778,55.187,87.684,55.187ZM60.959,84.4h9.377c6.892,0,10.925,2.626,10.925,9.378H56.27V75.02h4.689ZM25,55.046h2.626A32.821,32.821,0,0,0,56.27,75.02V65.643c-7.455,0-18.38-8.815-21.334-15.52l-2.11-3.235V9.378H56.27V0H31.279a9.054,9.054,0,0,0-7.83,9.378v4.689H4.694c-3.47,0-4.689,5.58-4.689,8.956v7.549A24.006,24.006,0,0,0,25,55.046ZM9.383,23.444H23.449V42.2l1.547.61c-11.862,0-15.613-7.924-15.613-9.987ZM24.856,55.187A.173.173,0,0,0,25,55.14v-.094C24.762,55.14,24.762,55.187,24.856,55.187ZM51.581,84.4H42.2c-6.892,0-10.925,2.626-10.925,9.378H56.27V75.02H51.581Z" transform="translate(0)" fill="#fff"/>
  </g>
</svg>
