<svg id="对战" xmlns="http://www.w3.org/2000/svg" width="30" height="30" viewBox="0 0 30 30">
  <path id="圆" d="M15,0A15,15,0,1,1,0,15,15,15,0,0,1,15,0Z" fill="#b0b0b0" opacity="0.93"/>
  <g id="小icon" transform="translate(6.074 7.906)">
    <path id="联合_3" data-name="联合 3" d="M0,6.262V0H8.622V6.262a4.2,4.2,0,0,1-4.311,4.084A4.2,4.2,0,0,1,0,6.262Z" transform="translate(4.112 0.389)" fill="#fff"/>
    <path id="对战-2" data-name="对战" d="M13.292,8.358h-.4a4.983,4.983,0,0,1-4.35,3.033V9.966A4.594,4.594,0,0,0,11.783,7.61l.32-.491v-5.7H8.544V0h3.794a1.369,1.369,0,0,1,1.189,1.424v.712h2.848c.527,0,.712.847.712,1.36V4.642a3.645,3.645,0,0,1-3.794,3.716Zm2.371-4.8H13.527V6.407l-.235.093c1.8,0,2.371-1.2,2.371-1.516ZM13.313,8.379a.026.026,0,0,1-.021-.007V8.358C13.328,8.372,13.328,8.379,13.313,8.379ZM9.256,12.814h1.424c1.046,0,1.659.4,1.659,1.424H8.544V11.39h.712ZM3.8,8.358h.4a4.983,4.983,0,0,0,4.35,3.033V9.966A4.594,4.594,0,0,1,5.3,7.61l-.32-.491v-5.7H8.544V0H4.749A1.375,1.375,0,0,0,3.56,1.424v.712H.713C.186,2.136,0,2.983,0,3.5V4.642A3.645,3.645,0,0,0,3.8,8.358Zm-2.371-4.8H3.56V6.407L3.8,6.5c-1.8,0-2.371-1.2-2.371-1.516ZM3.774,8.379A.026.026,0,0,0,3.8,8.372V8.358C3.76,8.372,3.76,8.379,3.774,8.379Zm4.058,4.435H6.408c-1.046,0-1.659.4-1.659,1.424H8.544V11.39H7.832Z" transform="translate(0)" fill="#fff"/>
  </g>
</svg>
