<svg xmlns="http://www.w3.org/2000/svg" width="30.612" height="30" viewBox="0 0 30.612 30">
  <path id="棋谱" d="M187.489,199.085h0a4.027,4.027,0,0,1-4.028-4.027v-.01a4.027,4.027,0,0,1,4.027-4.027h0a4.028,4.028,0,0,1,4.028,4.028v.009A4.027,4.027,0,0,1,187.489,199.085Zm0-10.967h0a4.028,4.028,0,0,1-4.028-4.027v-.01a4.028,4.028,0,0,1,4.028-4.028h0a4.027,4.027,0,0,1,4.027,4.027v.009A4.026,4.026,0,0,1,187.488,188.118ZM176.21,210.053h0a4.028,4.028,0,0,1-4.028-4.027v-.009a4.028,4.028,0,0,1,4.028-4.028h0a4.027,4.027,0,0,1,4.027,4.027v.009A4.026,4.026,0,0,1,176.21,210.053Zm0-10.968h0a4.027,4.027,0,0,1-4.027-4.027v-.009a4.028,4.028,0,0,1,4.028-4.028h0a4.027,4.027,0,0,1,4.027,4.027v.009A4.028,4.028,0,0,1,176.21,199.085Zm0-10.967h0a4.028,4.028,0,0,1-4.028-4.027v-.012a4.027,4.027,0,0,1,4.027-4.027h0a4.028,4.028,0,0,1,4.028,4.028v.007A4.026,4.026,0,0,1,176.21,188.118Zm-11.279,21.935h0a4.027,4.027,0,0,1-4.027-4.027v-.009a4.028,4.028,0,0,1,4.028-4.028h0a4.027,4.027,0,0,1,4.027,4.027v.009A4.026,4.026,0,0,1,164.931,210.053Zm0-10.968h0a4.027,4.027,0,0,1-4.027-4.027v-.009a4.028,4.028,0,0,1,4.028-4.028h0a4.027,4.027,0,0,1,4.027,4.027v.009A4.027,4.027,0,0,1,164.931,199.085Zm0-10.967h0a4.027,4.027,0,0,1-4.027-4.027v-.01a4.028,4.028,0,0,1,4.028-4.028h0a4.027,4.027,0,0,1,4.027,4.027v.009A4.027,4.027,0,0,1,164.931,188.118Z" transform="translate(-160.904 -180.053)" fill="#b0b0b0"/>
</svg>
