<svg xmlns="http://www.w3.org/2000/svg" width="188.222" height="184.463" viewBox="0 0 188.222 184.463">
  <path id="棋谱" d="M324.367,297.075h0A24.76,24.76,0,0,1,299.6,272.317v-.064a24.758,24.758,0,0,1,24.758-24.758h0a24.768,24.768,0,0,1,24.767,24.768v.055A24.759,24.759,0,0,1,324.367,297.075Zm-.009-67.432h0a24.766,24.766,0,0,1-24.767-24.759v-.064a24.768,24.768,0,0,1,24.767-24.768h0a24.758,24.758,0,0,1,24.758,24.759v.055A24.757,24.757,0,0,1,324.358,229.643ZM255.015,364.516h0a24.766,24.766,0,0,1-24.767-24.759V339.7a24.768,24.768,0,0,1,24.767-24.768h0a24.758,24.758,0,0,1,24.758,24.759v.055A24.754,24.754,0,0,1,255.015,364.516Zm0-67.441h0a24.758,24.758,0,0,1-24.758-24.759v-.055a24.768,24.768,0,0,1,24.767-24.768h0a24.758,24.758,0,0,1,24.758,24.758v.055A24.768,24.768,0,0,1,255.015,297.075Zm0-67.432h0a24.766,24.766,0,0,1-24.767-24.759v-.073a24.758,24.758,0,0,1,24.758-24.759h0a24.768,24.768,0,0,1,24.767,24.768v.046A24.756,24.756,0,0,1,255.015,229.643ZM185.662,364.516h0A24.758,24.758,0,0,1,160.9,339.757V339.7a24.768,24.768,0,0,1,24.767-24.768h0a24.758,24.758,0,0,1,24.758,24.759v.055A24.756,24.756,0,0,1,185.662,364.516Zm0-67.441h0A24.758,24.758,0,0,1,160.9,272.317v-.055a24.768,24.768,0,0,1,24.767-24.768h0a24.758,24.758,0,0,1,24.758,24.758v.055A24.762,24.762,0,0,1,185.662,297.075Zm0-67.432h0A24.758,24.758,0,0,1,160.9,204.885v-.064a24.768,24.768,0,0,1,24.767-24.768h0a24.758,24.758,0,0,1,24.758,24.759v.055A24.759,24.759,0,0,1,185.662,229.643Z" transform="translate(-160.904 -180.053)" fill="#b0b0b0"/>
</svg>
