<svg xmlns="http://www.w3.org/2000/svg" width="161.677" height="198.642" viewBox="0 0 161.677 198.642">
  <path id="比赛" d="M183.867,41.936c-43.779,0-79.262,35.23-79.262,78.686s35.483,78.686,79.262,78.686,79.252-35.23,79.252-78.686S227.646,41.936,183.867,41.936ZM224.6,113.6l-15.632,15.116,3.683,21.359c1.245,7.184-2.894,10.32-9.49,6.85l-19.325-10.087-19.325,10.087c-6.475,3.389-10.755.445-9.48-6.85l3.683-21.359L143.072,113.6c-5.251-5.079-3.754-10.017,3.642-11.079L168.306,99.4l9.652-19.426c3.238-6.516,8.448-6.647,11.757,0L199.377,99.4l21.591,3.116c7.265,1.042,8.985,5.919,3.642,11.079Zm38.245-99.478L242.083,47.177a3.5,3.5,0,0,1-5.231.749C222.89,36.493,203.788,32.415,194.3,31.039a3.5,3.5,0,0,1-2.317-5.524L207.39,4.308A8.762,8.762,0,0,1,214.493.7h40.936a8.762,8.762,0,0,1,7.416,13.426Zm-90.24,16.927c-9.511,1.4-28.582,5.464-42.575,16.887a3.48,3.48,0,0,1-5.211-.749L103.876,14.122A8.762,8.762,0,0,1,111.293.666H152.2a8.737,8.737,0,0,1,7.052,3.572L174.933,25.5a3.521,3.521,0,0,1-2.317,5.545Z" transform="translate(-102.512 -0.666)" fill="#b0b0b0"/>
</svg>
