<svg xmlns="http://www.w3.org/2000/svg" width="24.418" height="30" viewBox="0 0 24.418 30">
  <path id="比赛" d="M114.8,6.9a11.884,11.884,0,1,0,11.969,11.884A11.927,11.927,0,0,0,114.8,6.9Zm6.152,10.823L118.59,20l.556,3.226c.188,1.085-.437,1.559-1.433,1.034l-2.919-1.523-2.919,1.523c-.978.512-1.624.067-1.432-1.034L111,20l-2.362-2.283c-.793-.767-.567-1.513.55-1.673l3.261-.471,1.458-2.934c.489-.984,1.276-1,1.776,0l1.459,2.934,3.261.471c1.1.157,1.357.894.55,1.673ZM126.727,2.7,123.591,7.69a.529.529,0,0,1-.79.113,13.7,13.7,0,0,0-6.427-2.55.529.529,0,0,1-.35-.834l2.327-3.2A1.323,1.323,0,0,1,119.424.67h6.182a1.323,1.323,0,0,1,1.12,2.028ZM113.1,5.254a13.769,13.769,0,0,0-6.43,2.55.526.526,0,0,1-.787-.113L102.718,2.7a1.323,1.323,0,0,1,1.12-2.032h6.178a1.32,1.32,0,0,1,1.065.539l2.368,3.212a.532.532,0,0,1-.35.837Z" transform="translate(-102.512 -0.666)" fill="#b0b0b0"/>
</svg>
