<svg xmlns="http://www.w3.org/2000/svg" width="18.93" height="18.93" viewBox="0 0 18.93 18.93">
  <g id="重新播放" transform="translate(-147.097 -12)" opacity="0.93">
    <g id="椭圆_141" data-name="椭圆 141" transform="translate(148.999 13)" fill="#fff" stroke="#707070" stroke-width="1">
      <ellipse cx="8.05" cy="7.55" rx="8.05" ry="7.55" stroke="none"/>
      <ellipse cx="8.05" cy="7.55" rx="7.55" ry="7.05" fill="none"/>
    </g>
    <path id="重新播放-2" data-name="重新播放" d="M9.465,18.93A9.465,9.465,0,1,1,18.93,9.465,9.465,9.465,0,0,1,9.465,18.93ZM8.992,6.186v.5a.473.473,0,0,0,.736.394l1.513-1.009a.473.473,0,0,0,0-.787L9.727,4.277a.473.473,0,0,0-.736.394v.562a4.259,4.259,0,1,0,4.732,4.233.473.473,0,1,0-.946,0A3.313,3.313,0,1,1,8.992,6.186Z" transform="translate(147.097 12)" fill="#686868"/>
  </g>
</svg>
